<svg width="80" height="80" viewBox="0 0 80 80" fill="none" xmlns="http://www.w3.org/2000/svg">
<path d="M10 23.75H20C22.0675 23.75 23.75 22.0675 23.75 20C23.75 17.9325 22.0675 16.25 20 16.25H10C7.9325 16.25 6.25 17.9325 6.25 20C6.25 22.0675 7.9325 23.75 10 23.75ZM13.75 21.25V18.75H16.25V21.25H13.75ZM21.25 20C21.25 20.6887 20.69 21.25 20 21.25H18.75V18.75H20C20.69 18.75 21.25 19.3112 21.25 20ZM10 18.75H11.25V21.25H10C9.31 21.25 8.75 20.6887 8.75 20C8.75 19.3112 9.31 18.75 10 18.75Z" fill="#30CBF1"/>
<path d="M72.5 48.75C71.8288 48.75 71.2075 48.9412 70.6612 49.2513C70.2162 48.5488 69.545 48.0137 68.75 47.73V40.5112C74.785 36.7288 78.75 30.025 78.75 22.5C78.75 10.7825 69.2175 1.25 57.5 1.25C49.9162 1.25 43.2663 5.25625 39.505 11.25H5C2.9325 11.25 1.25 12.9325 1.25 15V65C1.25 67.0675 2.9325 68.75 5 68.75H49.275C49.905 70.985 51.09 73.035 52.7763 74.7225C55.3738 77.3187 58.8275 78.75 62.5 78.75C70.0813 78.75 76.25 72.5813 76.25 65V52.5C76.25 50.4338 74.5675 48.75 72.5 48.75ZM66.25 47.73C66.0437 47.8037 65.8487 47.895 65.6612 48.0013C64.9963 46.9525 63.8312 46.25 62.5 46.25C62.06 46.25 61.6425 46.34 61.25 46.48V43.3962C63.005 43.0837 64.68 42.5637 66.25 41.8525V47.73ZM54.5188 35.2513C53.27 34.3213 52.5 32.8563 52.5 31.25V26.25C52.5 23.4925 54.7425 21.25 57.5 21.25C58.175 21.25 58.8288 21.3825 59.4463 21.6425L60.42 19.3387C59.4937 18.9487 58.5112 18.75 57.5 18.75C55.7175 18.75 54.08 19.3775 52.7913 20.42C52.6038 19.8888 52.5 19.3288 52.5 18.75V13.75C52.5 10.9925 54.7425 8.75 57.5 8.75C60.2575 8.75 62.5 10.9925 62.5 13.75V18.75C62.5 21.5075 60.2575 23.75 57.5 23.75C56.8025 23.75 56.13 23.61 55.5 23.3337L54.4975 25.625C55.445 26.04 56.4562 26.25 57.5 26.25C59.2825 26.25 60.9212 25.6225 62.2087 24.58C62.3975 25.11 62.5 25.6712 62.5 26.25V31.25C62.5 32.8538 61.7287 34.32 60.4812 35.25C59.7962 34.345 58.72 33.75 57.5 33.75C56.2788 33.75 55.2038 34.345 54.5188 35.2513ZM57.5 3.75C67.8388 3.75 76.25 12.1613 76.25 22.5C76.25 31.46 69.8925 39.11 61.25 40.8625V37.7325C63.55 36.4025 65 33.9538 65 31.25V26.25C65 24.915 64.64 23.6425 63.9813 22.5062C64.625 21.4 65 20.12 65 18.75V13.75C65 9.61375 61.6362 6.25 57.5 6.25C53.3638 6.25 50 9.61375 50 13.75V18.75C50 20.085 50.3613 21.3563 51.02 22.4912C50.375 23.5987 50 24.88 50 26.25V31.25C50 33.9562 51.45 36.4062 53.75 37.7337V40.8625C45.1075 39.11 38.75 31.46 38.75 22.5C38.75 12.1613 47.1613 3.75 57.5 3.75ZM5 13.75H38.1575C36.9437 16.4225 36.25 19.3787 36.25 22.5C36.25 23.7775 36.3713 25.03 36.59 26.25H3.75V15C3.75 14.3112 4.31 13.75 5 13.75ZM5 66.25C4.31 66.25 3.75 65.6888 3.75 65V28.75H37.2062C39.5088 36.2088 45.8138 41.9825 53.75 43.3962V54.0375C52.5913 53.0925 51.1325 52.5 49.5225 52.5C47.7188 52.5 46.25 53.9688 46.25 55.7738C46.25 56.2775 46.37 56.7838 46.595 57.2375L48.0888 60.2262C48.5213 61.09 48.75 62.0563 48.75 63.0212V64.9987C48.75 65.42 48.7738 65.8363 48.8112 66.25H5ZM73.75 65C73.75 71.2025 68.7038 76.25 62.5 76.25C59.495 76.25 56.6688 75.0788 54.545 72.9538C52.42 70.8288 51.25 68.0038 51.25 64.9975V63.02C51.25 61.6675 50.93 60.315 50.3263 59.1063L48.8325 56.1188C48.7775 56.0125 48.75 55.8925 48.75 55.7738C48.75 55.3475 49.0962 55 49.5225 55C51.8525 55 53.75 56.8975 53.75 59.2275V61.25V62.5H56.25V61.25V59.2275V37.5C56.25 36.8112 56.81 36.25 57.5 36.25C58.19 36.25 58.75 36.8112 58.75 37.5V50V62.5H61.25V50C61.25 49.3112 61.81 48.75 62.5 48.75C63.19 48.75 63.75 49.3112 63.75 50V51.25V62.5H66.25V51.25C66.25 50.5612 66.81 50 67.5 50C68.19 50 68.75 50.5612 68.75 51.25V52.5V61.25V62.5H71.25V61.25V52.5C71.25 51.8112 71.81 51.25 72.5 51.25C73.1888 51.25 73.75 51.8112 73.75 52.5V65Z" fill="#30CBF1"/>
<path d="M22.5 31.25C13.54 31.25 6.25 38.54 6.25 47.5C6.25 56.46 13.54 63.75 22.5 63.75C31.46 63.75 38.75 56.46 38.75 47.5C38.75 38.54 31.46 31.25 22.5 31.25ZM22.5 61.25C21.1562 61.25 19.725 59.3412 18.7388 56.25H26.2625C25.275 59.3412 23.8438 61.25 22.5 61.25ZM18.1012 53.75C17.7962 52.2388 17.5912 50.5588 17.5262 48.75H27.4738C27.4088 50.5588 27.2025 52.2388 26.8987 53.75H18.1012ZM8.81375 48.75H15.0275C15.085 50.5238 15.2575 52.2038 15.5387 53.75H10.2675C9.485 52.2238 8.975 50.5375 8.81375 48.75ZM22.5 33.75C23.8438 33.75 25.275 35.6588 26.2613 38.75H18.7375C19.725 35.6588 21.1562 33.75 22.5 33.75ZM26.8987 41.25C27.2037 42.7612 27.4088 44.4412 27.4738 46.25H17.5262C17.5912 44.4412 17.7975 42.7612 18.1012 41.25H26.8987ZM15.0275 46.25H8.81375C8.97625 44.4625 9.485 42.7762 10.2688 41.25H15.5387C15.2575 42.7963 15.0837 44.4762 15.0275 46.25ZM29.9725 48.75H36.1862C36.0237 50.5375 35.515 52.2238 34.7313 53.75H29.4613C29.7425 52.2038 29.9163 50.5238 29.9725 48.75ZM29.9725 46.25C29.915 44.4762 29.7425 42.7963 29.4613 41.25H34.7313C35.5138 42.7762 36.0237 44.4625 36.1862 46.25H29.9725ZM33.0988 38.75H28.8825C28.4225 37.1312 27.8362 35.7225 27.1437 34.5738C29.485 35.4188 31.54 36.8663 33.0988 38.75ZM17.8575 34.5738C17.1663 35.7225 16.5788 37.1312 16.1188 38.75H11.9012C13.46 36.8663 15.515 35.4188 17.8575 34.5738ZM11.9012 56.25H16.1175C16.5775 57.8687 17.1637 59.2775 17.8562 60.4263C15.515 59.5813 13.46 58.1338 11.9012 56.25ZM27.1425 60.4263C27.8338 59.2775 28.4212 57.8687 28.8812 56.25H33.0975C31.54 58.1338 29.485 59.5813 27.1425 60.4263Z" fill="#30CBF1"/>
</svg>
