<svg width="80" height="80" viewBox="0 0 80 80" fill="none" xmlns="http://www.w3.org/2000/svg">
<path d="M73.0182 1.21216H6.98181C4.24241 1.21216 2.02423 3.44246 2.02423 6.16973V73.8182C2.02423 76.5576 4.24241 78.7879 6.98181 78.7879H73.0182C75.7576 78.7879 77.9758 76.5576 77.9758 73.8304V6.16973C77.9758 3.44246 75.7576 1.21216 73.0182 1.21216ZM6.98181 3.56367H73.0182C74.4606 3.56367 75.6364 4.73943 75.6364 6.18186V14.6425H4.37575V6.16973C4.37575 4.73943 5.53938 3.56367 6.98181 3.56367ZM73.0182 76.4364H6.98181C5.53938 76.4364 4.36362 75.2607 4.36362 73.8182V16.994H75.6242V73.8304C75.6242 75.2607 74.4606 76.4364 73.0182 76.4364Z" fill="#FF7C22"/>
<path d="M65.1273 10.2789H67.9636C68.6182 10.2789 69.1394 9.75767 69.1394 9.10313C69.1394 8.44858 68.6182 7.92737 67.9636 7.92737H65.1273C64.4727 7.92737 63.9515 8.44858 63.9515 9.10313C63.9515 9.75767 64.4727 10.2789 65.1273 10.2789Z" fill="#FF7C22"/>
<path d="M57.6364 10.2789H60.4727C61.1273 10.2789 61.6485 9.75767 61.6485 9.10313C61.6485 8.44858 61.1273 7.92737 60.4727 7.92737H57.6364C56.9818 7.92737 56.4606 8.44858 56.4606 9.10313C56.4606 9.75767 56.9818 10.2789 57.6364 10.2789Z" fill="#FF7C22"/>
<path d="M50.1454 10.2789H52.9818C53.6363 10.2789 54.1575 9.75767 54.1575 9.10313C54.1575 8.44858 53.6363 7.92737 52.9818 7.92737H50.1454C49.4909 7.92737 48.9697 8.44858 48.9697 9.10313C48.9697 9.75767 49.4909 10.2789 50.1454 10.2789Z" fill="#FF7C22"/>
<path d="M12.2545 10.2789H31.6485C32.303 10.2789 32.8242 9.75767 32.8242 9.10313C32.8242 8.44858 32.303 7.92737 31.6485 7.92737H12.2545C11.6 7.92737 11.0788 8.44858 11.0788 9.10313C11.0788 9.75767 11.6 10.2789 12.2545 10.2789Z" fill="#FF7C22"/>
<path d="M12.2545 26.3758H22.3273C22.9818 26.3758 23.503 25.8546 23.503 25.2001C23.503 24.5455 22.9818 24.0243 22.3273 24.0243H12.2545C11.6 24.0243 11.0788 24.5455 11.0788 25.2001C11.0788 25.8546 11.6 26.3758 12.2545 26.3758Z" fill="#FF7C22"/>
<path d="M23.503 31.2849C23.503 30.6303 22.9818 30.1091 22.3273 30.1091H12.2545C11.6 30.1091 11.0788 30.6303 11.0788 31.2849C11.0788 31.9394 11.6 32.4606 12.2545 32.4606H22.3273C22.9818 32.4606 23.503 31.9394 23.503 31.2849Z" fill="#FF7C22"/>
<path d="M55.6606 19.4667C52.6788 19.4667 49.8788 20.6182 47.7818 22.7273L40.8242 29.697C37.4182 33.103 36.6061 38.2424 38.7273 42.4849L36.2424 45.0182C34.7273 44.2424 33.0424 43.8182 31.3091 43.8182C28.3273 43.8182 25.5394 44.9818 23.4424 47.0909L16.4848 54.0485C14.3879 56.1334 13.2364 58.9212 13.2364 61.903C13.2364 64.8849 14.3879 67.6727 16.4848 69.7697C18.5697 71.8667 21.3697 73.0303 24.3515 73.0303C27.3333 73.0303 30.1212 71.8788 32.2182 69.7818L39.1879 62.8121C41.2848 60.703 42.4364 57.903 42.4364 54.9333C42.4364 53.2727 42.0364 51.6485 41.3333 50.1697L43.903 47.5515C45.3697 48.2667 47.0061 48.6667 48.7151 48.6788C51.6727 48.6788 54.4727 47.5273 56.5818 45.4182L63.5394 38.4485C65.6485 36.3394 66.8121 33.5394 66.8121 30.5697C66.8121 27.6 65.6485 24.8121 63.5394 22.703C61.4303 20.6303 58.6424 19.4667 55.6606 19.4667ZM41.0061 43.5152L42.6667 41.8061L46.6545 37.7333C46.9091 37.4788 47.2364 37.3576 47.5636 37.3576C47.8788 37.3576 48.2061 37.4788 48.4485 37.7212C48.6909 37.9636 48.8242 38.2788 48.8364 38.6182C48.8364 38.9576 48.7151 39.2727 48.4727 39.5152L45.8182 42.2303L42.8 45.3091V45.3212L36.4848 51.7697L35.3454 52.9333L33.6727 54.6424C33.2 55.1273 32.3636 55.1394 31.8788 54.6667C31.6364 54.4243 31.503 54.1091 31.4909 53.7697C31.4909 53.4303 31.6121 53.1152 31.8545 52.8606L40.9818 43.5394C40.9939 43.5273 41.0061 43.5152 41.0061 43.5152ZM50.1091 36.0364C48.7394 34.703 46.5939 34.6788 45.1758 35.9273C45.3576 35.5152 45.6121 35.1394 45.9394 34.8121L52.9091 27.8546C54.3636 26.3879 56.9333 26.3879 58.4 27.8546C59.1394 28.5939 59.5515 29.5636 59.5515 30.594C59.5515 31.6364 59.1515 32.6182 58.4121 33.3455L51.4424 40.3152C51.0667 40.6909 50.6303 40.9697 50.1576 41.1636L50.1697 41.1515C50.8485 40.4606 51.2121 39.5515 51.2 38.5818C51.1879 37.6243 50.8 36.7152 50.1091 36.0364ZM30.2303 56.3273C30.9091 56.994 31.8061 57.3576 32.7636 57.3576C33.4545 57.3576 34.1212 57.1515 34.6909 56.7879C34.5091 57.1152 34.303 57.4303 34.0364 57.697L27.0788 64.6546C26.3515 65.3818 25.3818 65.7818 24.3394 65.7818C24.3394 65.7818 24.3394 65.7818 24.3273 65.7818C23.2848 65.7818 22.3151 65.3697 21.5879 64.6424C20.0727 63.1273 20.0727 60.6667 21.5879 59.1637L28.5576 52.2061C28.9939 51.7697 29.5394 51.4546 30.1212 51.2727C29.4788 51.9515 29.1273 52.8364 29.1394 53.7818C29.1515 54.7515 29.5394 55.6485 30.2303 56.3273ZM39.5515 51.9879C39.8909 52.9212 40.0727 53.9152 40.0727 54.9455C40.0727 57.2849 39.1636 59.4909 37.503 61.1637L30.5454 68.1212C28.897 69.7697 26.6909 70.6788 24.3394 70.6788C21.9879 70.6788 19.7818 69.7697 18.1333 68.1091C16.4727 66.4485 15.5636 64.2424 15.5636 61.903C15.5636 59.5637 16.4727 57.3576 18.1333 55.7091L25.103 48.7394C26.7515 47.0788 28.9576 46.1576 31.3091 46.1576C32.4242 46.1576 33.503 46.3637 34.5091 46.7637L32.497 48.8121C32.1091 48.7394 31.7091 48.6909 31.297 48.6909C29.6364 48.6909 28.0727 49.3455 26.897 50.5212L19.9394 57.4788C17.5151 59.903 17.5151 63.8546 19.9394 66.2788C21.1151 67.4546 22.6788 68.1091 24.3394 68.1091H24.3515C26.0121 68.1091 27.5758 67.4667 28.7515 66.2909L35.7091 59.3334C36.8848 58.1576 37.5394 56.594 37.5394 54.9212C37.5394 54.6303 37.5151 54.3637 37.4788 54.0849L38.8606 52.6788L39.5515 51.9879ZM61.8667 36.8121L54.9091 43.7818C53.2364 45.4424 51.0303 46.3515 48.703 46.3515C47.6242 46.3394 46.5939 46.1576 45.6364 45.794L47.6727 43.7212C49.6606 44.0606 51.697 43.4061 53.1151 41.9879L60.0848 35.0182C61.2606 33.8424 61.9151 32.2667 61.9151 30.6061C61.9151 28.9455 61.2606 27.3818 60.0727 26.2061C58.897 25.0303 57.3333 24.3758 55.6727 24.3758C54 24.3758 52.4364 25.0303 51.2606 26.2061L44.2909 33.1758C42.8727 34.6061 42.2424 36.6303 42.5576 38.6061L41.1636 40L40.497 40.6788C39.2727 37.503 40 33.8424 42.497 31.3576L49.4545 24.3879C51.1151 22.7273 53.3212 21.8182 55.6727 21.8182C58.0121 21.8182 60.2182 22.7273 61.8788 24.3879C63.5394 26.0485 64.4606 28.2546 64.4606 30.594C64.4485 32.9333 63.5273 35.1394 61.8667 36.8121Z" fill="#FF7C22"/>
</svg>
