<svg width="80" height="80" viewBox="0 0 80 80" fill="none" xmlns="http://www.w3.org/2000/svg">
<g clip-path="url(#clip0_3_211)">
<path d="M74.6754 18.6514H53.87C53.1334 18.6514 52.5363 19.2485 52.5363 19.985C52.5363 20.7216 53.1335 21.3186 53.87 21.3186H74.6754C75.4105 21.3186 76.009 21.917 76.009 22.6522V29.3206H54.6039C53.8673 29.3206 53.2703 29.9178 53.2703 30.6542C53.2703 31.3907 53.8675 31.9878 54.6039 31.9878H76.009V75.9989C76.009 76.7341 75.4105 77.3325 74.6754 77.3325H5.32462C4.58943 77.3325 3.991 76.7341 3.991 75.9989V31.9878H25.3961C26.1327 31.9878 26.7297 31.3907 26.7297 30.6542C26.7297 29.9178 26.1325 29.3206 25.3961 29.3206H3.99084V22.6522C3.99084 21.917 4.58927 21.3186 5.32446 21.3186H26.13C26.8666 21.3186 27.4636 20.7214 27.4636 19.985C27.4636 19.2484 26.8664 18.6514 26.13 18.6514H5.32462C3.11828 18.6514 1.32361 20.446 1.32361 22.6524V75.9991C1.32361 78.2054 3.11828 80.0001 5.32462 80.0001H74.6754C76.8817 80.0001 78.6764 78.2054 78.6764 75.9991V22.6524C78.6764 20.446 76.8817 18.6514 74.6754 18.6514Z" fill="#FF7C22"/>
<path d="M7.04505 24.3726C6.80468 24.626 6.65823 24.9593 6.65823 25.3194C6.65823 25.6795 6.80468 26.013 7.04505 26.2662C7.29839 26.5058 7.63176 26.653 7.99185 26.653C8.33834 26.653 8.68546 26.5058 8.93865 26.2662C9.17824 26.0129 9.32547 25.6658 9.32547 25.3194C9.32547 24.9723 9.17824 24.6258 8.93865 24.3726C8.43149 23.8791 7.53799 23.8791 7.04505 24.3726Z" fill="#FF7C22"/>
<path d="M12.3797 24.3726C12.1393 24.626 11.9929 24.9725 11.9929 25.3194C11.9929 25.6659 12.1395 26.013 12.3797 26.2662C12.633 26.5058 12.9795 26.653 13.3265 26.653C13.673 26.653 14.0201 26.5058 14.2733 26.2662C14.5129 26.0129 14.6601 25.6658 14.6601 25.3194C14.6601 24.9723 14.5129 24.6258 14.2733 24.3726C13.7661 23.8791 12.8728 23.8791 12.3797 24.3726Z" fill="#FF7C22"/>
<path d="M17.7145 24.3726C17.4741 24.6259 17.3276 24.9724 17.3276 25.3194C17.3276 25.6795 17.4741 26.013 17.7145 26.2526C17.9678 26.5059 18.3012 26.6532 18.6613 26.6532C19.0213 26.6532 19.3549 26.5059 19.6081 26.2664C19.8476 26.013 19.9949 25.6796 19.9949 25.3196C19.9949 24.9724 19.8476 24.6259 19.6081 24.3728C19.1145 23.879 18.2074 23.879 17.7145 24.3726Z" fill="#FF7C22"/>
<path d="M20.2503 45.8736C19.9807 46.2448 19.92 46.728 20.0901 47.1539L22.7574 53.8223C22.9072 54.1962 23.2185 54.4826 23.6041 54.6011C23.7324 54.6408 23.8646 54.6603 23.996 54.6603C24.2584 54.6603 24.519 54.5828 24.7417 54.4325L32.1883 49.4121C32.6554 50.7306 33.0827 51.8018 33.3709 52.501C33.3717 52.5029 33.3734 52.5042 33.3742 52.506C33.442 52.6687 33.5405 52.8152 33.6635 52.9377C33.721 52.9949 33.7955 53.026 33.8618 53.0713C33.9373 53.1234 34.0042 53.187 34.0898 53.2229C34.25 53.29 34.423 53.325 34.5993 53.3258C34.6011 53.3258 34.6025 53.3267 34.6043 53.3267H35.1748L33.4725 56.7312C33.266 57.1447 33.2882 57.6356 33.5311 58.029C33.774 58.4218 34.2031 58.6613 34.6654 58.6613H45.3348C45.7972 58.6613 46.2263 58.4218 46.4692 58.029C46.7121 57.6356 46.7343 57.1447 46.5278 56.7312L44.8255 53.3267H45.0013C45.0701 53.3267 45.1293 53.2976 45.1953 53.2875C45.2623 53.2978 45.3286 53.3273 45.3953 53.3273C45.9195 53.3273 46.417 53.016 46.6294 52.5009C46.9174 51.8016 47.345 50.7303 47.8122 49.4121L55.2584 54.4323C55.4812 54.5827 55.7417 54.6602 56.0041 54.6602C56.1357 54.6602 56.2678 54.6406 56.3961 54.6009C56.7816 54.4825 57.0928 54.1958 57.2427 53.8222L59.9101 47.1538C60.0801 46.7279 60.0195 46.2446 59.7499 45.8734L51.5775 34.6384C52.263 29.2657 52.2202 23.1052 50.3503 16.7816C48.6083 10.8946 45.4597 5.39011 40.9917 0.421981C40.485 -0.14066 39.5148 -0.14066 39.0081 0.421981C34.5388 5.39198 31.3902 10.8967 29.6497 16.7816C27.7797 23.1052 27.737 29.2658 28.4225 34.6384L20.2503 45.8736ZM36.8233 55.994L38.1569 53.3266H41.8427L43.1763 55.994H36.8233ZM50.9816 38.3539L57.1592 46.8471L55.3796 51.2968L48.7138 46.8032C49.469 44.5359 50.3306 41.6586 50.9816 38.3539ZM32.2076 17.5383C33.7035 12.4803 36.322 7.71163 39.9999 3.34459C43.6766 7.71022 46.2951 12.4791 47.7922 17.5383C49.6092 23.6821 49.6092 29.6084 48.8962 34.7764C48.8918 34.8008 48.8895 34.8241 48.8864 34.8486C48.0826 40.6115 46.3937 45.4235 45.3111 48.4842C45.0118 49.3312 44.7333 50.0584 44.4951 50.6593H35.5047C35.2665 50.0584 34.9879 49.331 34.6887 48.4836C33.6061 45.4232 31.9173 40.6115 31.1135 34.8486C31.1103 34.8241 31.1081 34.801 31.1038 34.7766C30.3906 29.6084 30.3906 23.6821 32.2076 17.5383ZM31.2862 46.803L24.6204 51.2968L22.8406 46.8471L29.0182 38.3539C29.6693 41.6585 30.5311 44.5359 31.2862 46.803Z" fill="#FF7C22"/>
<path d="M38.6663 65.3295V69.3305C38.6663 70.0671 39.2635 70.6641 39.9999 70.6641C40.7365 70.6641 41.3335 70.0669 41.3335 69.3305V65.3295C41.3335 64.5929 40.7363 63.9958 39.9999 63.9958C39.2635 63.9958 38.6663 64.593 38.6663 65.3295Z" fill="#FF7C22"/>
<path d="M33.3317 62.6622V66.6632C33.3317 67.3998 33.9288 67.9969 34.6653 67.9969C35.4017 67.9969 35.9989 67.3997 35.9989 66.6632V62.6622C35.9989 61.9256 35.4017 61.3286 34.6653 61.3286C33.9288 61.3286 33.3317 61.9256 33.3317 62.6622Z" fill="#FF7C22"/>
<path d="M45.3347 61.3286C44.5981 61.3286 44.0011 61.9258 44.0011 62.6622V66.6632C44.0011 67.3998 44.5982 67.9969 45.3347 67.9969C46.0711 67.9969 46.6683 67.3997 46.6683 66.6632V62.6622C46.6683 61.9258 46.0711 61.3286 45.3347 61.3286Z" fill="#FF7C22"/>
<path d="M39.9999 30.6542C43.6766 30.6542 46.6683 27.6625 46.6683 23.9858C46.6683 20.3091 43.6766 17.3174 39.9999 17.3174C36.3232 17.3174 33.3315 20.3091 33.3315 23.9858C33.3317 27.6625 36.3232 30.6542 39.9999 30.6542ZM39.9999 19.9848C42.2062 19.9848 44.0009 21.7794 44.0009 23.9858C44.0009 26.1921 42.2062 27.9868 39.9999 27.9868C37.7936 27.9868 35.9989 26.1921 35.9989 23.9858C35.9989 21.7794 37.7937 19.9848 39.9999 19.9848Z" fill="#FF7C22"/>
</g>
<defs>
<clipPath id="clip0_3_211">
<rect width="80" height="80" fill="white"/>
</clipPath>
</defs>
</svg>
