<svg width="80" height="80" viewBox="0 0 80 80" fill="none" xmlns="http://www.w3.org/2000/svg">
<g clip-path="url(#clip0_3_181)">
<path d="M78.6667 48.3068C77.9303 48.3068 77.3333 48.9037 77.3333 49.6401V63.3334C77.3333 64.8062 76.1394 66.0001 74.6667 66.0001H53.0667C52.3303 66.0001 51.7333 66.5971 51.7333 67.3334C51.7333 68.0698 52.3303 68.6668 53.0667 68.6668H74.6667C77.6122 68.6668 80 66.279 80 63.3334V49.6401C80 48.9037 79.403 48.3068 78.6667 48.3068Z" fill="#5ECE3E"/>
<path d="M72 56.6667V60.6667H68C67.2636 60.6667 66.6667 61.2637 66.6667 62C66.6667 62.7364 67.2636 63.3334 68 63.3334H73.3333C74.0697 63.3334 74.6667 62.7364 74.6667 62V56.6667C74.6667 55.9303 74.0697 55.3334 73.3333 55.3334C72.5969 55.3334 72 55.9303 72 56.6667Z" fill="#5ECE3E"/>
<path d="M74.6667 3.33337H5.33333C2.38781 3.33337 0 5.72119 0 8.66671V63.3334C0 66.2789 2.38781 68.6667 5.33333 68.6667H18.88C19.6164 68.6667 20.2133 68.0698 20.2133 67.3334C20.2133 66.597 19.6164 66 18.88 66H5.33333C3.86057 66 2.66667 64.8061 2.66667 63.3334V22H77.3333V30.5467C77.3333 31.2831 77.9303 31.88 78.6667 31.88C79.403 31.88 80 31.2831 80 30.5467V8.66671C80 5.72119 77.6122 3.33337 74.6667 3.33337ZM2.66667 19.3334V8.66671C2.66667 7.19395 3.86057 6.00004 5.33333 6.00004H74.6667C76.1394 6.00004 77.3333 7.19395 77.3333 8.66671V19.3334H2.66667Z" fill="#5ECE3E"/>
<path d="M9.33334 8.66675C7.1242 8.66675 5.33334 10.4576 5.33334 12.6667C5.33334 14.8759 7.1242 16.6667 9.33334 16.6667C11.5425 16.6667 13.3333 14.8759 13.3333 12.6667C13.3333 10.4576 11.5425 8.66675 9.33334 8.66675ZM9.33334 14.0001C8.59696 14.0001 8.00001 13.4031 8.00001 12.6667C8.00001 11.9304 8.59696 11.3334 9.33334 11.3334C10.0697 11.3334 10.6667 11.9304 10.6667 12.6667C10.6667 13.4031 10.0697 14.0001 9.33334 14.0001Z" fill="#5ECE3E"/>
<path d="M20 8.66675C17.7909 8.66675 16 10.4576 16 12.6667C16 14.8759 17.7909 16.6667 20 16.6667C22.2091 16.6667 24 14.8759 24 12.6667C24 10.4576 22.2091 8.66675 20 8.66675ZM20 14.0001C19.2636 14.0001 18.6667 13.4031 18.6667 12.6667C18.6667 11.9304 19.2636 11.3334 20 11.3334C20.7364 11.3334 21.3333 11.9304 21.3333 12.6667C21.3333 13.4031 20.7364 14.0001 20 14.0001Z" fill="#5ECE3E"/>
<path d="M30.6667 8.66675C28.4575 8.66675 26.6667 10.4576 26.6667 12.6667C26.6667 14.8759 28.4575 16.6667 30.6667 16.6667C32.8758 16.6667 34.6667 14.8759 34.6667 12.6667C34.6667 10.4576 32.8758 8.66675 30.6667 8.66675ZM30.6667 14.0001C29.9303 14.0001 29.3333 13.4031 29.3333 12.6667C29.3333 11.9304 29.9303 11.3334 30.6667 11.3334C31.403 11.3334 32 11.9304 32 12.6667C32 13.4031 31.403 14.0001 30.6667 14.0001Z" fill="#5ECE3E"/>
<path d="M7.99999 28.6667H36C36.7364 28.6667 37.3333 28.0697 37.3333 27.3333C37.3333 26.597 36.7364 26 36 26H7.99999C7.26361 26 6.66666 26.597 6.66666 27.3333C6.66666 28.0697 7.26361 28.6667 7.99999 28.6667Z" fill="#5ECE3E"/>
<path d="M7.99999 35.3334H36C36.7364 35.3334 37.3333 34.7365 37.3333 34.0001C37.3333 33.2637 36.7364 32.6667 36 32.6667H7.99999C7.26361 32.6667 6.66666 33.2637 6.66666 34.0001C6.66666 34.7365 7.26361 35.3334 7.99999 35.3334Z" fill="#5ECE3E"/>
<path d="M7.99999 42H36C36.7364 42 37.3333 41.4031 37.3333 40.6667C37.3333 39.9303 36.7364 39.3334 36 39.3334H7.99999C7.26361 39.3334 6.66666 39.9303 6.66666 40.6667C6.66666 41.4031 7.26361 42 7.99999 42Z" fill="#5ECE3E"/>
<path d="M7.99999 48.6667H36C36.7364 48.6667 37.3333 48.0697 37.3333 47.3333C37.3333 46.597 36.7364 46 36 46H7.99999C7.26361 46 6.66666 46.597 6.66666 47.3333C6.66666 48.0697 7.26361 48.6667 7.99999 48.6667Z" fill="#5ECE3E"/>
<path d="M7.99999 55.3334H30.16C30.8964 55.3334 31.4933 54.7365 31.4933 54.0001C31.4933 53.2637 30.8964 52.6667 30.16 52.6667H7.99999C7.26361 52.6667 6.66666 53.2637 6.66666 54.0001C6.66666 54.7365 7.26361 55.3334 7.99999 55.3334Z" fill="#5ECE3E"/>
<path d="M7.99999 62H21.3333C22.0697 62 22.6667 61.4031 22.6667 60.6667C22.6667 59.9303 22.0697 59.3334 21.3333 59.3334H7.99999C7.26361 59.3334 6.66666 59.9303 6.66666 60.6667C6.66666 61.4031 7.26361 62 7.99999 62Z" fill="#5ECE3E"/>
<path d="M44 28.6667H72C72.7364 28.6667 73.3333 28.0697 73.3333 27.3333C73.3333 26.597 72.7364 26 72 26H44C43.2636 26 42.6667 26.597 42.6667 27.3333C42.6667 28.0697 43.2636 28.6667 44 28.6667Z" fill="#5ECE3E"/>
<path d="M44 35.3334H58.6667C59.403 35.3334 60 34.7365 60 34.0001C60 33.2637 59.403 32.6667 58.6667 32.6667H44C43.2636 32.6667 42.6667 33.2637 42.6667 34.0001C42.6667 34.7365 43.2636 35.3334 44 35.3334Z" fill="#5ECE3E"/>
<path d="M44 42H49.3333C50.0697 42 50.6667 41.4031 50.6667 40.6667C50.6667 39.9303 50.0697 39.3334 49.3333 39.3334H44C43.2636 39.3334 42.6667 39.9303 42.6667 40.6667C42.6667 41.4031 43.2636 42 44 42Z" fill="#5ECE3E"/>
<path d="M20.2773 75.4267C20.7702 76.1473 21.5869 76.5784 22.46 76.5787C22.6752 76.5784 22.8896 76.5525 23.0987 76.5013L37.5333 73C37.853 72.9235 38.1556 72.7878 38.4253 72.6L64.5334 54.5413L70.016 50.7506L77.692 45.4413C80.1113 43.7639 80.7167 40.4448 79.0453 38.0213L76.0107 33.6346C74.3354 31.212 71.0134 30.6061 68.5907 32.2813L60.9147 37.5907L55.44 41.3813L29.3253 59.4426C29.0553 59.628 28.8224 59.8622 28.6387 60.1333L20.2667 72.408C19.6398 73.3178 19.6441 74.5213 20.2773 75.4267ZM55.8667 44.3333L61.9333 53.1067L37.8013 69.7906L31.7333 61.0187L55.8667 44.3333ZM61.3493 40.5413L67.4174 49.3146L64.12 51.5893L58.0534 42.816L61.3493 40.5413ZM70.1227 34.4733C70.7045 34.0709 71.4224 33.9162 72.1183 34.0433C72.8143 34.1703 73.4312 34.5687 73.8334 35.1507L76.8667 39.536C77.2695 40.1179 77.4244 40.8361 77.2974 41.5324C77.1703 42.2286 76.7717 42.8458 76.1893 43.248L69.6 47.7973L63.532 39.024L70.1227 34.4733ZM29.8867 63.0347L35.2627 70.808L29.708 72.1547L26.6667 67.756L29.8867 63.0347ZM25.0573 70.116L26.9333 72.828L22.4707 73.9093L25.0573 70.116Z" fill="#5ECE3E"/>
</g>
<defs>
<clipPath id="clip0_3_181">
<rect width="80" height="80" fill="white"/>
</clipPath>
</defs>
</svg>
