<svg width="90" height="83" viewBox="0 0 90 83" fill="none" xmlns="http://www.w3.org/2000/svg">
<g clip-path="url(#clip0_3_237)">
<path d="M41.1025 57.0757L51.3657 54.6528C51.7104 54.5974 52.028 54.4446 52.2745 54.2156L88.0033 21.2508C88.9527 20.3731 89.4859 19.184 89.4859 17.9443C89.4859 16.7046 88.9527 15.5155 88.0033 14.6379L85.1189 11.969C84.6477 11.5329 84.0871 11.1875 83.4698 10.953C82.8526 10.7184 82.1909 10.5993 81.5233 10.6027C80.8574 10.6006 80.1976 10.7202 79.5821 10.9547C78.9666 11.1893 78.4077 11.534 77.9376 11.969L72.0108 17.4343V7.13221C72.0095 6.27062 71.8238 5.41773 71.4645 4.6224C71.1051 3.82708 70.5791 3.10496 69.9166 2.49742C69.2541 1.88987 68.4681 1.40885 67.6036 1.0819C66.7391 0.754947 65.8132 0.588502 64.8788 0.592098H7.84315C5.96292 0.594508 4.16046 1.28433 2.83094 2.51031C1.50142 3.7363 0.753342 5.3984 0.750729 7.13221V64.1897C0.753342 65.9235 1.50142 67.5856 2.83094 68.8116C4.16046 70.0376 5.96292 70.7274 7.84315 70.7298H34.9287L51.988 81.9791C52.2462 82.1499 52.5505 82.2518 52.8673 82.2735C53.1842 82.2953 53.5014 82.236 53.7842 82.1024C54.0669 81.9687 54.3043 81.7658 54.4701 81.5159C54.6359 81.2659 54.7239 80.9787 54.7242 80.6857V70.7298H64.8788C66.7591 70.7274 68.5615 70.0376 69.8911 68.8116C71.2206 67.5856 71.9687 65.9235 71.9713 64.1897V46.1269C71.9713 45.7042 71.7891 45.2987 71.465 44.9998C71.1408 44.7009 70.7011 44.5329 70.2426 44.5329C69.7841 44.5329 69.3445 44.7009 69.0203 44.9998C68.6961 45.2987 68.514 45.7042 68.514 46.1269V64.1897C68.514 64.6299 68.4199 65.0658 68.2373 65.4724C68.0546 65.8791 67.7868 66.2487 67.4493 66.5599C67.1117 66.8712 66.711 67.1181 66.2699 67.2866C65.8289 67.455 65.3562 67.5417 64.8788 67.5417H50.2199C49.7614 67.5417 49.3217 67.7096 48.9975 68.0086C48.6733 68.3075 48.4912 68.713 48.4912 69.1357C48.4912 69.5585 48.6733 69.964 48.9975 70.2629C49.3217 70.5618 49.7614 70.7298 50.2199 70.7298H51.2669V77.5887L36.4499 67.8332C36.1613 67.644 35.8162 67.5422 35.4621 67.5417H7.80364C7.32627 67.5417 6.85357 67.455 6.41254 67.2866C5.97151 67.1181 5.57078 66.8712 5.23322 66.5599C4.89567 66.2487 4.62791 65.8791 4.44523 65.4724C4.26255 65.0658 4.16852 64.6299 4.16852 64.1897V7.13221C4.1685 6.68893 4.26381 6.25005 4.44896 5.84097C4.63411 5.43189 4.90541 5.06073 5.24716 4.74899C5.5889 4.43724 5.99431 4.1911 6.43991 4.0248C6.88552 3.8585 7.36246 3.77536 7.84315 3.78018H64.8788C65.8429 3.78018 66.7675 4.13334 67.4493 4.76196C68.131 5.39059 68.514 6.2432 68.514 7.13221V20.6588L42.2088 44.9155C41.9625 45.1442 41.7972 45.4364 41.7346 45.7535L38.9886 55.1082C38.9013 55.3784 38.8957 55.6653 38.9723 55.9382C39.0489 56.2111 39.2048 56.4595 39.4232 56.6567C39.6418 56.8519 39.9105 56.9927 40.2042 57.066C40.4979 57.1393 40.807 57.1426 41.1025 57.0757ZM77.4536 16.9242L82.6297 21.6972L51.02 50.8453L45.8439 46.0814L77.4536 16.9242ZM44.3918 49.1875L47.6121 52.157L43.1373 53.2773L44.3918 49.1875ZM81.5233 13.7907C81.7362 13.7902 81.947 13.8285 82.1437 13.9035C82.3404 13.9786 82.519 14.0889 82.6692 14.228L85.5535 16.8877C85.7038 17.0257 85.823 17.1896 85.9043 17.3702C85.9857 17.5507 86.0275 17.7443 86.0275 17.9398C86.0275 18.1353 85.9857 18.3289 85.9043 18.5094C85.823 18.69 85.7038 18.8539 85.5535 18.9919L85.0695 19.4382L79.9033 14.6743L80.3873 14.228C80.535 14.0883 80.7117 13.9776 80.9069 13.9025C81.1021 13.8273 81.3118 13.7893 81.5233 13.7907Z" fill="#5ECE3E"/>
<path d="M17.0593 16.7147H31.1454C31.6039 16.7147 32.0436 16.5467 32.3677 16.2478C32.6919 15.9489 32.8741 15.5434 32.8741 15.1207C32.8741 14.6979 32.6919 14.2924 32.3677 13.9935C32.0436 13.6946 31.6039 13.5266 31.1454 13.5266H17.0593C16.6009 13.5266 16.1612 13.6946 15.837 13.9935C15.5128 14.2924 15.3307 14.6979 15.3307 15.1207C15.3307 15.5434 15.5128 15.9489 15.837 16.2478C16.1612 16.5467 16.6009 16.7147 17.0593 16.7147Z" fill="#5ECE3E"/>
<path d="M49.4988 16.7147C49.9572 16.7147 50.3969 16.5467 50.7211 16.2478C51.0453 15.9489 51.2274 15.5434 51.2274 15.1207C51.2274 14.6979 51.0453 14.2924 50.7211 13.9935C50.3969 13.6946 49.9572 13.5266 49.4988 13.5266H38.7317C38.2733 13.5266 37.8336 13.6946 37.5094 13.9935C37.1852 14.2924 37.0031 14.6979 37.0031 15.1207C37.0031 15.5434 37.1852 15.9489 37.5094 16.2478C37.8336 16.5467 38.2733 16.7147 38.7317 16.7147H49.4988Z" fill="#5ECE3E"/>
<path d="M17.0593 30.0589H23.7073C24.1657 30.0589 24.6054 29.891 24.9296 29.592C25.2538 29.2931 25.4359 28.8877 25.4359 28.4649C25.4359 28.0421 25.2538 27.6367 24.9296 27.3377C24.6054 27.0388 24.1657 26.8708 23.7073 26.8708H17.0593C16.6009 26.8708 16.1612 27.0388 15.837 27.3377C15.5128 27.6367 15.3307 28.0421 15.3307 28.4649C15.3307 28.8877 15.5128 29.2931 15.837 29.592C16.1612 29.891 16.6009 30.0589 17.0593 30.0589Z" fill="#5ECE3E"/>
<path d="M38.0897 41.8367C38.0897 41.4139 37.9075 41.0085 37.5833 40.7096C37.2592 40.4106 36.8195 40.2427 36.361 40.2427H30.3453C29.8868 40.2427 29.4471 40.4106 29.1229 40.7096C28.7988 41.0085 28.6166 41.4139 28.6166 41.8367C28.6166 42.2595 28.7988 42.6649 29.1229 42.9639C29.4471 43.2628 29.8868 43.4308 30.3453 43.4308H36.361C36.8195 43.4308 37.2592 43.2628 37.5833 42.9639C37.9075 42.6649 38.0897 42.2595 38.0897 41.8367Z" fill="#5ECE3E"/>
<path d="M17.0593 56.7843H33.6742C34.1326 56.7843 34.5723 56.6163 34.8965 56.3174C35.2207 56.0184 35.4028 55.613 35.4028 55.1902C35.4028 54.7675 35.2207 54.362 34.8965 54.0631C34.5723 53.7641 34.1326 53.5962 33.6742 53.5962H17.0593C16.6009 53.5962 16.1612 53.7641 15.837 54.0631C15.5128 54.362 15.3307 54.7675 15.3307 55.1902C15.3307 55.613 15.5128 56.0184 15.837 56.3174C16.1612 56.6163 16.6009 56.7843 17.0593 56.7843Z" fill="#5ECE3E"/>
<path d="M59.357 16.7147C59.8155 16.7147 60.2552 16.5467 60.5794 16.2478C60.9036 15.9489 61.0857 15.5434 61.0857 15.1207C61.0857 14.6979 60.9036 14.2924 60.5794 13.9935C60.2552 13.6946 59.8155 13.5266 59.357 13.5266H56.038C55.5796 13.5266 55.1399 13.6946 54.8157 13.9935C54.4915 14.2924 54.3094 14.6979 54.3094 15.1207C54.3094 15.5434 54.4915 15.9489 54.8157 16.2478C55.1399 16.5467 55.5796 16.7147 56.038 16.7147H59.357Z" fill="#5ECE3E"/>
<path d="M51.2274 28.4832C51.2274 28.0604 51.0453 27.655 50.7211 27.356C50.3969 27.0571 49.9572 26.8892 49.4988 26.8892H30.7305C30.5035 26.8892 30.2787 26.9304 30.069 27.0105C29.8593 27.0906 29.6687 27.208 29.5082 27.356C29.3477 27.5041 29.2203 27.6798 29.1335 27.8732C29.0466 28.0666 29.0019 28.2739 29.0019 28.4832C29.0019 28.6925 29.0466 28.8998 29.1335 29.0932C29.2203 29.2866 29.3477 29.4623 29.5082 29.6104C29.6687 29.7584 29.8593 29.8758 30.069 29.9559C30.2787 30.036 30.5035 30.0772 30.7305 30.0772H49.4988C49.9572 30.0772 50.3969 29.9093 50.7211 29.6104C51.0453 29.3114 51.2274 28.906 51.2274 28.4832Z" fill="#5ECE3E"/>
<path d="M22.4429 40.2427H18.7682C18.3098 40.2427 17.8701 40.4106 17.5459 40.7096C17.2217 41.0085 17.0396 41.4139 17.0396 41.8367C17.0396 42.2595 17.2217 42.6649 17.5459 42.9639C17.8701 43.2628 18.3098 43.4308 18.7682 43.4308H22.4923C22.9507 43.4308 23.3904 43.2628 23.7146 42.9639C24.0388 42.6649 24.2209 42.2595 24.2209 41.8367C24.2209 41.4139 24.0388 41.0085 23.7146 40.7096C23.3904 40.4106 22.9507 40.2427 22.4923 40.2427H22.4429Z" fill="#5ECE3E"/>
</g>
<defs>
<clipPath id="clip0_3_237">
<rect width="89.89" height="82.89" fill="white"/>
</clipPath>
</defs>
</svg>
