<svg width="80" height="80" viewBox="0 0 80 80" fill="none" xmlns="http://www.w3.org/2000/svg">
<path d="M18.75 41.25H22.5V43.75H18.75V41.25Z" fill="#30CBF1"/>
<path d="M27.5 47.5H31.25V50H27.5V47.5Z" fill="#30CBF1"/>
<path d="M18.75 47.5H25V50H18.75V47.5Z" fill="#30CBF1"/>
<path d="M8.75 47.5H16.25V50H8.75V47.5Z" fill="#30CBF1"/>
<path d="M16.25 53.75H31.25V56.25H16.25V53.75Z" fill="#30CBF1"/>
<path d="M8.75 53.75H13.75V56.25H8.75V53.75Z" fill="#30CBF1"/>
<path d="M23.75 60H31.25V62.5H23.75V60Z" fill="#30CBF1"/>
<path d="M8.75 60H21.25V62.5H8.75V60Z" fill="#30CBF1"/>
<path d="M16.25 66.25H23.75V68.75H16.25V66.25Z" fill="#30CBF1"/>
<path d="M8.75 66.25H13.75V68.75H8.75V66.25Z" fill="#30CBF1"/>
<path d="M75 37.5C75 37.1685 74.8683 36.8506 74.6339 36.6161C74.3995 36.3817 74.0815 36.25 73.75 36.25H66.25C65.9185 36.25 65.6006 36.3817 65.3661 36.6161C65.1317 36.8506 65 37.1685 65 37.5V43.75H58.75C58.4185 43.75 58.1006 43.8817 57.8661 44.1161C57.6317 44.3506 57.5 44.6685 57.5 45V51.25H51.25C50.9185 51.25 50.6006 51.3817 50.3661 51.6161C50.1317 51.8506 50 52.1685 50 52.5V58.75H43.75C43.4185 58.75 43.1006 58.8817 42.8661 59.1161C42.6317 59.3506 42.5 59.6685 42.5 60V67.5H33.535C33.2401 66.666 32.6599 65.9631 31.8969 65.5155C31.1339 65.0679 30.2372 64.9044 29.3653 65.054C28.4934 65.2036 27.7025 65.6566 27.1323 66.3329C26.5622 67.0093 26.2494 67.8654 26.2494 68.75C26.2494 69.6346 26.5622 70.4908 27.1323 71.1671C27.7025 71.8434 28.4934 72.2964 29.3653 72.446C30.2372 72.5956 31.1339 72.4321 31.8969 71.9846C32.6599 71.537 33.2401 70.834 33.535 70H35V73.75C34.9996 74.0814 34.8678 74.3991 34.6335 74.6335C34.3991 74.8678 34.0814 74.9996 33.75 75H6.25001C5.91861 74.9996 5.60089 74.8678 5.36655 74.6335C5.13221 74.3991 5.00039 74.0814 5.00001 73.75V45H11.25C12.2442 44.9989 13.1974 44.6034 13.9004 43.9004C14.6034 43.1974 14.9989 42.2442 15 41.25V35H33.75C34.0814 35.0004 34.3991 35.1322 34.6335 35.3665C34.8678 35.6009 34.9996 35.9186 35 36.25V37.5H37.5V36.25C37.4989 35.2558 37.1034 34.3026 36.4004 33.5996C35.6974 32.8966 34.7442 32.5012 33.75 32.5H14.7855C14.2928 32.4987 13.8048 32.5951 13.3496 32.7836C12.8945 32.9722 12.4812 33.2491 12.1338 33.5984L3.59834 42.1339C3.24903 42.4813 2.97209 42.8945 2.78357 43.3497C2.59504 43.8049 2.49866 44.2929 2.50001 44.7856V73.75C2.50115 74.7442 2.8966 75.6974 3.59962 76.4004C4.30263 77.1034 5.2558 77.4989 6.25001 77.5H33.75C34.7442 77.4989 35.6974 77.1034 36.4004 76.4004C37.1034 75.6974 37.4989 74.7442 37.5 73.75V70H77.5V67.5H75V37.5ZM12.5 36.7678V41.25C12.4996 41.5814 12.3678 41.8991 12.1335 42.1335C11.8991 42.3678 11.5814 42.4996 11.25 42.5H6.76783L12.5 36.7678ZM30 70C29.7528 70 29.5111 69.9267 29.3056 69.7894C29.1 69.652 28.9398 69.4568 28.8452 69.2284C28.7506 69 28.7258 68.7486 28.774 68.5061C28.8223 68.2637 28.9413 68.0409 29.1161 67.8661C29.2909 67.6913 29.5137 67.5723 29.7561 67.524C29.9986 67.4758 30.25 67.5006 30.4784 67.5952C30.7068 67.6898 30.902 67.85 31.0394 68.0556C31.1767 68.2611 31.25 68.5028 31.25 68.75C31.2496 69.0814 31.1178 69.3991 30.8835 69.6335C30.6491 69.8678 30.3314 69.9996 30 70ZM45 61.25H50V67.5H45V61.25ZM52.5 53.75H57.5V67.5H52.5V53.75ZM60 46.25H65V67.5H60V46.25ZM67.5 67.5V38.75H72.5V67.5H67.5Z" fill="#30CBF1"/>
<path d="M6.25 33.75C6.88347 33.7501 7.50666 33.5897 8.06137 33.2838C8.61609 32.9779 9.08424 32.5364 9.42213 32.0006C9.76003 31.4648 9.95664 30.852 9.99361 30.2196C10.0306 29.5873 9.90671 28.9558 9.63356 28.3842L13.3842 24.6335C13.8586 24.8603 14.3754 24.9847 14.901 24.9986C15.4266 25.0126 15.9493 24.9159 16.4351 24.7146C16.9209 24.5134 17.3589 24.2123 17.7206 23.8307C18.0824 23.4492 18.3599 22.9958 18.535 22.5H23.965C24.242 23.2836 24.7715 23.953 25.4703 24.403C26.1691 24.853 26.9976 25.058 27.8256 24.9858C28.6536 24.9136 29.4342 24.5684 30.0446 24.0043C30.655 23.4402 31.0607 22.6893 31.1979 21.8695L38.2571 15.8188C39.0403 16.2299 39.9436 16.351 40.8074 16.1605C41.6712 15.9701 42.4399 15.4805 42.9776 14.7781C43.5154 14.0758 43.7875 13.206 43.746 12.3224C43.7045 11.4389 43.352 10.5984 42.7508 9.94956C42.1496 9.30073 41.3384 8.8853 40.4606 8.77668C39.5827 8.66806 38.6947 8.87324 37.9535 9.35597C37.2123 9.8387 36.6656 10.5679 36.41 11.4147C36.1544 12.2615 36.2063 13.1714 36.5567 13.9836L30.5765 19.1095C30.1829 18.5429 29.6406 18.096 29.0093 17.8179C28.378 17.5398 27.6822 17.4414 26.9985 17.5335C26.3149 17.6256 25.6699 17.9046 25.1346 18.3398C24.5994 18.775 24.1947 19.3495 23.965 20H18.535C18.3654 19.5199 18.0997 19.0794 17.7543 18.7053C17.4089 18.3313 16.991 18.0315 16.5259 17.8242C16.0608 17.6169 15.5584 17.5066 15.0493 17.4998C14.5402 17.493 14.0351 17.59 13.5647 17.7849C13.0943 17.9797 12.6685 18.2683 12.3133 18.6331C11.9581 18.9979 11.6809 19.4312 11.4986 19.9066C11.3163 20.382 11.2327 20.8895 11.253 21.3983C11.2732 21.907 11.3969 22.4063 11.6164 22.8657L7.86575 26.6164C7.35787 26.3739 6.8019 26.2488 6.23908 26.2504C5.67625 26.252 5.12101 26.3803 4.61452 26.6257C4.10803 26.8712 3.66329 27.2275 3.31328 27.6682C2.96327 28.109 2.71697 28.6229 2.59264 29.1718C2.46831 29.7207 2.46914 30.2906 2.59507 30.8392C2.721 31.3877 2.9688 31.9009 3.32009 32.3406C3.67138 32.7804 4.11716 33.1354 4.62436 33.3794C5.13156 33.6233 5.68717 33.75 6.25 33.75ZM40 11.25C40.2472 11.25 40.4889 11.3233 40.6945 11.4606C40.9 11.598 41.0602 11.7932 41.1548 12.0216C41.2495 12.25 41.2742 12.5014 41.226 12.7438C41.1777 12.9863 41.0587 13.209 40.8839 13.3839C40.7091 13.5587 40.4863 13.6777 40.2439 13.726C40.0014 13.7742 39.75 13.7494 39.5216 13.6548C39.2932 13.5602 39.098 13.4 38.9607 13.1944C38.8233 12.9889 38.75 12.7472 38.75 12.5C38.7504 12.1686 38.8822 11.8508 39.1165 11.6165C39.3509 11.3822 39.6686 11.2504 40 11.25ZM27.5 20C27.7472 20 27.9889 20.0733 28.1945 20.2106C28.4 20.348 28.5602 20.5432 28.6548 20.7716C28.7495 21 28.7742 21.2514 28.726 21.4938C28.6777 21.7363 28.5587 21.959 28.3839 22.1339C28.2091 22.3087 27.9863 22.4277 27.7439 22.476C27.5014 22.5242 27.25 22.4994 27.0216 22.4048C26.7932 22.3102 26.598 22.15 26.4607 21.9444C26.3233 21.7389 26.25 21.4972 26.25 21.25C26.2504 20.9186 26.3822 20.6008 26.6165 20.3665C26.8509 20.1322 27.1686 20.0004 27.5 20ZM15 20C15.2472 20 15.4889 20.0733 15.6945 20.2106C15.9 20.348 16.0602 20.5432 16.1548 20.7716C16.2495 21 16.2742 21.2514 16.226 21.4938C16.1777 21.7363 16.0587 21.959 15.8839 22.1339C15.7091 22.3087 15.4863 22.4277 15.2439 22.476C15.0014 22.5242 14.7501 22.4994 14.5216 22.4048C14.2932 22.3102 14.098 22.15 13.9607 21.9444C13.8233 21.7389 13.75 21.4972 13.75 21.25C13.7504 20.9186 13.8822 20.6008 14.1165 20.3665C14.3509 20.1322 14.6686 20.0004 15 20ZM6.25 28.75C6.49722 28.75 6.7389 28.8233 6.94446 28.9606C7.15002 29.098 7.31024 29.2932 7.40485 29.5216C7.49946 29.75 7.52421 30.0014 7.47598 30.2438C7.42775 30.4863 7.3087 30.709 7.13388 30.8839C6.95907 31.0587 6.73634 31.1777 6.49386 31.226C6.25138 31.2742 6.00005 31.2494 5.77164 31.1548C5.54324 31.0602 5.34801 30.9 5.21066 30.6944C5.07331 30.4889 5 30.2472 5 30C5.00038 29.6686 5.1322 29.3508 5.36653 29.1165C5.60087 28.8822 5.91859 28.7504 6.25 28.75Z" fill="#30CBF1"/>
<path d="M51.4946 31.7376L43.2323 40H32.285C31.9901 39.166 31.4099 38.4631 30.6469 38.0155C29.8838 37.5679 28.9872 37.4044 28.1153 37.554C27.2434 37.7036 26.4525 38.1566 25.8823 38.833C25.3121 39.5093 24.9994 40.3654 24.9994 41.25C24.9994 42.1346 25.3121 42.9908 25.8823 43.6671C26.4525 44.3434 27.2434 44.7964 28.1153 44.946C28.9872 45.0956 29.8838 44.9322 30.6469 44.4846C31.4099 44.037 31.9901 43.334 32.285 42.5H35V65H37.5V42.5H43.75C44.0815 42.5 44.3995 42.3683 44.6339 42.1339L53.6555 33.1124C57.3747 35.0863 61.7137 35.5439 65.7628 34.3892C69.812 33.2345 73.257 30.5572 75.3757 26.9185C77.4944 23.2798 78.1222 18.9621 77.1277 14.8707C76.1331 10.7792 73.5933 7.23162 70.0407 4.97148C66.4881 2.71134 62.1986 1.91418 58.0712 2.74708C53.9438 3.57998 50.299 5.97827 47.9009 9.43925C45.5028 12.9002 44.5376 17.1551 45.2075 21.3121C45.8775 25.4691 48.1306 29.2053 51.4946 31.7376ZM28.75 42.5C28.5028 42.5 28.2611 42.4267 28.0555 42.2894C27.85 42.152 27.6897 41.9568 27.5951 41.7284C27.5005 41.5 27.4758 41.2486 27.524 41.0062C27.5722 40.7637 27.6913 40.541 27.8661 40.3661C28.0409 40.1913 28.2636 40.0723 28.5061 40.024C28.7486 39.9758 28.9999 40.0006 29.2283 40.0952C29.4567 40.1898 29.652 40.35 29.7893 40.5556C29.9267 40.7611 30 41.0028 30 41.25C29.9996 41.5814 29.8678 41.8992 29.6335 42.1335C29.3991 42.3678 29.0814 42.4997 28.75 42.5ZM71.2766 28.1484L64.0336 20H74.9425C74.6652 23.0494 73.3746 25.9181 71.2766 28.1484ZM74.9425 17.5H62.5V5.05745C65.6998 5.35406 68.6952 6.76024 70.9675 9.03255C73.2398 11.3049 74.6459 14.3002 74.9425 17.5ZM60 5.05745V18.75C59.9999 19.0561 60.1127 19.3515 60.3168 19.5796L60.3157 19.5805L69.409 29.8105C67.7023 31.0697 65.7273 31.9169 63.6387 32.2859C61.5501 32.6548 59.4044 32.5355 57.3696 31.9372C55.3347 31.3389 53.4659 30.278 51.9093 28.8373C50.3528 27.3966 49.1506 25.6153 48.397 23.6327C47.6434 21.6501 47.3588 19.5201 47.5653 17.4092C47.7719 15.2983 48.4641 13.2639 49.5878 11.465C50.7114 9.66612 52.236 8.15165 54.0424 7.04005C55.8487 5.92846 57.8878 5.2499 60 5.05745Z" fill="#30CBF1"/>
</svg>
